<?xml version="1.0" encoding="UTF-8"?><svg id="Layer_2" xmlns="http://www.w3.org/2000/svg" viewBox="0 0 922.21 903.6"><defs><style>.cls-1{fill:#efeae3;}</style></defs><g id="Layer_1-2"><path class="cls-1" d="M37.59,657.88l-3.81-12.87,5.65-9.32c-7.65-3.5-13.36-10.35-16.09-19.55-2.87-9.76-1.75-18.94,3.32-26.19-8.13-3.63-14.28-10.94-17.2-20.84-5.52-18.69,3.35-34.57,22.59-40.25l39.97-11.8,7.59,25.74-37.53,11.09c-7.86,2.33-11.22,7.88-9.18,14.79,2.04,6.91,7.87,9.75,15.75,7.43l37.53-11.09,7.16,24.25-37.53,11.09c-7.87,2.32-11.24,7.87-9.18,14.79,2.04,6.91,7.87,9.75,15.73,7.43l37.53-11.09,7.61,25.74-69.9,20.66Z"/><path class="cls-1" d="M37.27,501.3C14.81,500.74-.58,483.53.02,459.52c.71-27.96,21.6-44.11,47.76-38.94l-1.34,53.95c6.13-2.53,9.73-10.35,10.02-22.21.18-7.92-1.15-16.28-4.04-25.26l20.06.51c3,10.25,4.46,19.76,4.22,28.94-.69,27.68-16.27,45.38-39.43,44.8ZM31.46,445.61c-6.98,1.66-11.05,6.65-11.24,14.13-.2,7.63,3.9,13.1,10.51,14.97l.72-29.1Z"/><path class="cls-1" d="M8.25,386.02l3.62-12.91,9.95-5.14c-4.73-7.19-5.86-16.3-3.15-25.96,5.27-18.77,21.25-27.63,40.56-22.22l40.11,11.24-7.24,25.84-37.68-10.57c-7.89-2.2-13.69.72-15.72,7.92-2.01,7.21,1.38,12.86,9.27,15.06l37.68,10.57-7.25,25.84-70.16-19.68Z"/><path class="cls-1" d="M33.55,274.17c-3.31,5.95-9.89,8.29-16.4,5.19-6.89-3.28-9.5-10.31-5.97-17.71,3.82-8.04,12.15-9.41,21.07-5.15,7.13,3.41,15.07,11.4,20.03,19.71l-5.4,11.35c-4.86-6.54-8.86-10.63-13.33-13.39Z"/><path class="cls-1" d="M117.24,282.82l-17.24-11.58c10.09-5.13,18.07-11.68,22.55-18.37,3.3-4.92,3.48-8.21.9-9.94-7.98-5.35-22.28,28.58-44.9,13.39-11.71-7.89-12.38-21.6-2.06-36.95,5.67-8.44,13.46-15.97,21.98-21.31l16.76,11.27c-9.02,4.82-16.85,11.66-20.78,17.5-3,4.46-3.2,7.55-.63,9.28,8.45,5.68,23.33-28.89,45.14-14.24,11.84,7.96,12.76,22.02,1.58,38.66-6.23,9.27-14.83,17.27-23.3,22.28Z"/><path class="cls-1" d="M149.05,131.92l11.12-7.5,10.6,2.57c1.01-8.34,5.83-15.85,13.8-21.21,8.43-5.68,17.52-7.38,25.96-4.72,1.03-8.85,6.16-16.9,14.71-22.66,16.16-10.89,33.97-7.22,45.16,9.42l23.28,34.56-22.25,14.99-21.86-32.45c-4.57-6.8-10.89-8.34-16.86-4.32-5.97,4.03-6.92,10.46-2.35,17.26l21.86,32.45-20.98,14.12-21.86-32.45c-4.57-6.8-10.89-8.34-16.86-4.31-5.97,4.02-6.92,10.45-2.35,17.24l21.86,32.46-22.27,14.99-40.7-60.46Z"/><path class="cls-1" d="M305.39,69.42l-12.83,4.41-7.53-21.9,38.19-13.14,23.72,68.91-25.38,8.73-16.18-47ZM298.14,8.88c8.41-2.9,16.18.54,18.98,8.7,2.8,8.15-1.14,15.79-9.55,18.68-8.42,2.9-16.09-.74-18.89-8.89-2.8-8.14,1.04-15.6,9.46-18.49Z"/><path class="cls-1" d="M358.64,28.39l13.31-1.67,8.59,7.17c4.79-7.15,12.76-11.7,22.71-12.96,19.34-2.43,33.7,8.86,36.19,28.76l5.21,41.32-26.63,3.35-4.87-38.8c-1.02-8.12-5.97-12.35-13.38-11.42-7.43.94-11.31,6.26-10.29,14.39l4.87,38.8-26.63,3.35-9.08-72.3Z"/><path class="cls-1" d="M464.87,54.44c2.97-21.99,19.66-35.7,40.1-32.95,7.85,1.06,14.41,4.23,19.48,8.91l4.1-30.41,26.62,3.6-13.23,98.03-14.15-1.9-5.66-8.76c-7.11,5.03-16.26,7.36-26.21,6.02-21.15-2.87-34.03-20.44-31.04-42.56ZM504.37,75.6c9.25,1.25,16.09-4.09,17.36-13.48,1.27-9.38-3.91-16.36-13.16-17.6-9.25-1.26-16.09,4.1-17.38,13.48-1.27,9.39,3.93,16.37,13.17,17.61Z"/><path class="cls-1" d="M561.82,102.21l7.46-19.38c7.25,8.7,15.41,15.03,22.92,17.92,5.52,2.13,8.78,1.57,9.89-1.33,3.46-8.97-32.83-15.38-23.02-40.81,5.08-13.18,18.3-16.87,35.58-10.21,9.48,3.66,18.55,9.58,25.66,16.69l-7.27,18.85c-6.71-7.73-15.1-13.85-21.69-16.38-5.01-1.94-8.07-1.45-9.19,1.45-3.66,9.5,33.36,16.35,23.92,40.87-5.13,13.31-18.64,17.33-37.36,10.12-10.41-4.01-20.12-10.64-26.9-17.79Z"/><path class="cls-1" d="M715.96,99.64l9.8,9.18-.16,10.9c8.38-.87,16.77,2.15,23.77,8.72,7.42,6.95,11.1,15.43,10.38,24.24,8.86-.98,17.87,2.22,25.39,9.27,14.23,13.33,14.61,31.51.89,46.13l-28.48,30.42-19.59-18.35,26.77-28.56c5.59-5.97,5.69-12.48.43-17.39-5.26-4.93-11.74-4.42-17.34,1.55l-26.77,28.56-18.43-17.29,26.75-28.55c5.6-5.99,5.69-12.49.43-17.41-5.26-4.93-11.74-4.41-17.34,1.56l-26.75,28.55-19.59-18.35,49.84-53.19Z"/><path class="cls-1" d="M795.84,234.45c19.58-10.7,40.53-5.08,50.67,13.52,4.82,8.81,5.92,18.19,3.56,26.56l10.32,2.09,6.97,12.77-63.98,34.95-6.97-12.77,3.94-9.88c-8.44-2.48-15.73-8.48-20.54-17.28-10.16-18.6-3.44-39.33,16.03-49.95ZM802.18,278.77c4.46,8.19,12.83,10.55,21.14,6.01,8.3-4.54,10.84-12.85,6.39-21.03-4.47-8.19-12.84-10.55-21.16-6.01-8.3,4.54-10.84,12.85-6.37,21.03Z"/><path class="cls-1" d="M837.92,346.08l22.47-6.23-3.63-13.07,10.61-2.94,38.07,20.96,2.68,9.67-18.23,5.06,5.32,19.2-20.97,5.81-5.32-19.19-19.75,5.48c-6.41,1.78-8.47,5.43-6.53,12.37.85,3.13,2.35,6.4,4.6,9.72l-20.83,5.78c-3.41-5.95-5.85-11.57-7.41-17.15-5.21-18.79,1.08-30.5,18.92-35.46Z"/><path class="cls-1" d="M855.07,424.52l23.26-1.65-.97-13.53,11-.78,33.14,28.09.72,10-18.88,1.33,1.4,19.87-21.69,1.54-1.42-19.86-20.43,1.45c-6.62.47-9.37,3.64-8.87,10.83.23,3.24,1.05,6.73,2.6,10.44l-21.57,1.53c-2.16-6.49-3.43-12.5-3.85-18.28-1.39-19.44,7.09-29.67,25.55-30.99Z"/><path class="cls-1" d="M868.65,493.69c22.19,3.38,35.28,22.36,31.68,46.09-4.21,27.64-26.95,41.02-52.24,32.6l8.12-53.32c-6.41,1.74-10.94,9.05-12.73,20.77-1.18,7.82-.9,16.28.82,25.54l-19.81-3.02c-1.69-10.54-1.94-20.15-.55-29.21,4.16-27.35,21.83-42.95,44.72-39.46ZM867.4,549.62c7.12-.77,11.8-5.2,12.91-12.6,1.15-7.53-2.23-13.48-8.53-16.15l-4.38,28.76Z"/><path class="cls-1" d="M882.48,609.82l-4.74,12.56-9.96,3.93c4.33,6.93,4.71,13.88,1.77,21.68-1.16,3.04-2.79,6.19-5.03,9.27l-21.94-8.3c2.23-3.08,3.67-5.71,4.63-8.21,3.29-8.73-.27-15.67-10.06-19.37l-32.37-12.25,9.5-25.11,68.19,25.8Z"/><path class="cls-1" d="M452.33,811.51c-182.89,0-331.69-148.79-331.69-331.69S269.44,148.13,452.33,148.13s331.69,148.8,331.69,331.69-148.8,331.69-331.69,331.69ZM452.33,179.83c-165.41,0-299.98,134.58-299.98,299.99s134.57,299.98,299.98,299.98,299.98-134.57,299.98-299.98-134.57-299.99-299.98-299.99Z"/><path class="cls-1" d="M243.44,504.07l-24.82-19.72c107.04-134.71,143.1-180.1,187.7-159.89,39.23,17.77,27.54,67.2,18.99,103.3-2.35,9.93-5.6,23.69-6.19,32.08,8.65-7.65,22.2-25.89,31.79-38.8,33.95-45.7,80.46-108.25,133.23-74.69,27.96,17.79,24.47,48.68,21.67,73.49-2.65,23.49-3.48,38.39,7.34,47.32,4.53,3.73,17.58,7.07,54.22-12.58l14.98,27.94c-26.13,14.02-63.84,30.19-89.39,9.08-24.83-20.51-21.41-50.9-18.65-75.32,2.83-25.05,3-36.7-7.19-43.19-23.59-15.04-49.09,10.75-90.76,66.84-25.99,35-48.48,65.23-73.75,51.95-22.29-11.68-15.42-40.71-8.15-71.45,7.78-32.89,13.06-60.65-1.22-67.12-20.19-9.17-55.16,31.63-149.8,150.73Z"/><path class="cls-1" d="M452.93,641.02c-49.07,0-95.62-17.32-134.61-50.09l20.39-24.27c33.21,27.91,72.71,42.66,114.22,42.66h.09c41.54-.02,81.05-14.82,114.26-42.79l20.42,24.25c-38.98,32.84-85.55,50.21-134.66,50.24h-.11Z"/><path class="cls-1" d="M452.33,903.6c-134.21,0-261.8-64.54-341.3-172.63l12.76-9.4c76.54,104.05,199.35,166.17,328.54,166.17s252-62.12,328.54-166.17l12.76,9.4c-79.5,108.09-207.09,172.63-341.3,172.63Z"/></g></svg>