<svg xmlns="http://www.w3.org/2000/svg" xmlns:xlink="http://www.w3.org/1999/xlink" id="Layer_1" data-name="Layer 1" version="1.1" viewBox="0 0 370 379.1"><defs><style> .cls-1 { fill: #5ce1e6; } .cls-1, .cls-2, .cls-3 { stroke-width: 0px; } .cls-4 { mix-blend-mode: multiply; opacity: .8; } .cls-4, .cls-5 { isolation: isolate; } .cls-2 { fill: #c1e7e8; } .cls-3 { fill: #fff; } </style></defs><g class="cls-5"><g id="Layer_1-2" data-name="Layer 1-2"><rect class="cls-1" x="-1" y="-2.3" width="372.8" height="292.7"></rect><rect class="cls-2" x="-1" y="290.5" width="372.8" height="90.4"></rect><image class="cls-4" width="279" height="101" transform="translate(50.2 36.6)"></image><path class="cls-3" d="M61.3,101.4c1.6,4.6,3.9,8.8,6.9,12.6,4.2,5.2,10.5,8.2,17.2,8.1,3.5,0,7-1.2,9.6-3.5,2.7-2.4,4.1-5.6,4.1-9.8s-1.4-7.3-4.1-9.9c-1.8-1.8-5.5-4.5-11.2-8l-9.9-6.2c-2.6-1.6-5-3.5-7.2-5.8-3.2-3.3-4.9-7.6-5-12.2-.2-5.5,2-10.9,5.9-14.7,3.9-3.9,9.1-5.9,15.5-5.9s6.5.8,9.6,2c2.1.8,4.2,1.5,6.4,2,1.1,0,2.2-.2,3-1,.6-.9,1.1-1.9,1.3-2.9h2.4l2.6,24.8h-2.8c-1.9-7.5-4.9-12.7-9.1-15.7s-8.3-4.5-12.5-4.6c-3,0-6,.9-8.3,2.8-2.4,1.9-3.7,4.8-3.6,7.8,0,2.8.9,5.5,2.7,7.7,2.5,2.7,5.3,5,8.5,6.8l10.2,6.3c6.4,4,10.9,7.6,13.6,10.9,2.6,3.4,4,7.6,3.9,11.9,0,5.9-2.4,11.5-6.9,15.3-4.6,4.1-10.5,6.2-17.7,6.2s-7.7-.7-11.3-2c-2.2-.9-4.4-1.6-6.7-2.1-1.1,0-2.1.3-2.8,1.2-.5.8-.8,1.7-.9,2.7h-2.5l-3.5-24.8h2.7,0Z"></path><path class="cls-3" d="M148.3,72.4v4.1h-11.6v32.8c-.2,2.2,0,4.4.6,6.5.6,2.4,2.9,4.1,5.4,3.9,1.3,0,2.5-.3,3.6-1,1.3-.9,2.4-1.9,3.4-3.1l1.5,1.2-1.3,1.7c-1.6,2.3-3.8,4.3-6.3,5.6-2,1-4.1,1.6-6.4,1.7-4.5,0-7.5-2-9.1-6-1-2.9-1.4-5.9-1.3-9v-34.4h-6.2c-.2,0-.3-.2-.4-.3v-.4c0-.3,0-.6.3-.9.5-.5,1.1-1,1.6-1.4,2-1.6,3.9-3.4,5.7-5.3,1.2-1.3,3.9-4.9,8.2-10.7h.9s.1.4.1.8v14h11.5l-.2.2Z"></path><path class="cls-3" d="M163.5,99.8c3.5-2.3,10.5-5.4,20.9-9.3v-4.8c0-3.9-.4-6.6-1.1-8.1-1.3-2.5-4-3.8-8-3.8s-3.8.5-5.5,1.5c-1.6.8-2.6,2.4-2.6,4.2s.1,1.5.3,2.3c.1.7.2,1.4.3,2.1,0,2.1-.7,3.6-2.1,4.4-.9.5-1.8.8-2.8.7-1.5,0-3-.5-3.9-1.7-.9-1-1.4-2.4-1.4-3.7,0-2.7,1.6-5.4,4.9-8.3s8.1-4.3,14.4-4.3,12.3,2.4,15,7.2c1.4,2.6,2.1,6.4,2.1,11.4v22.8c0,1.5,0,3.1.5,4.6.4,1.4,1.7,2.3,3.1,2.2.7,0,1.5,0,2.2-.4,1.1-.6,2.1-1.2,3-1.9v3c-1.1,1.4-2.4,2.6-3.9,3.6-1.9,1.4-4.2,2.1-6.5,2.2-2.6,0-4.4-.8-5.6-2.5-1.2-1.8-1.9-3.9-1.9-6-2.3,2.1-4.8,3.9-7.4,5.6-2.9,1.9-6.3,3-9.8,3.1-3.2,0-6.2-1.2-8.5-3.4-2.4-2.3-3.7-5.4-3.6-8.7,0-5.5,2.6-10.1,8.1-13.8l-.2-.2h0ZM184.4,93.3c-3.8,1.2-7.4,2.8-10.8,4.8-5.5,3.4-8.2,7.2-8.2,11.5s1.1,6,3.4,7.6c1.4,1,3.2,1.6,4.9,1.6,2.6,0,5-.7,7.2-2.1,2.3-1.4,3.4-3.2,3.4-5.3v-18h.1Z"></path><path class="cls-3" d="M204.9,123.3c2.7-.3,4.6-1,5.7-2s1.6-3.2,1.6-6.8v-28.9c.1-1.7-.1-3.4-.7-5.1-.7-1.4-2.2-2.2-4.4-2.2h-1.1c-.4,0-.8,0-1.3.2v-2c1.6-.5,5.2-1.6,11-3.5l5.4-1.8c.3,0,.4,0,.5.3v9.2c2.5-2.5,5.3-4.7,8.2-6.7,2.7-1.8,5.9-2.8,9.2-2.8s5,.8,7.1,2.2c4.1,2.9,6.1,8,6.1,15.4v26.6c0,2.7.6,4.7,1.6,5.9s2.9,1.8,5.5,1.9v1.6h-24.2v-1.6c2.8-.4,4.7-1.2,5.8-2.3,1.1-1.2,1.6-3.7,1.6-7.5v-24.3c.1-2.8-.5-5.6-1.8-8.1-1.2-2.1-3.4-3.2-6.7-3.2s-4.8.9-6.8,2.3c-1.8,1.3-3.5,2.7-5,4.3v31.9c0,2.7.6,4.6,1.8,5.5s3.1,1.4,5.8,1.5v1.6h-24.9v-1.6h0Z"></path><path class="cls-3" d="M296.3,72.9c1.6.9,3.1,2,4.4,3.3v-18.1c.1-1.6-.1-3.3-.8-4.8-.5-.9-1.7-1.3-3.7-1.3h-1.2l-2.3.2v-1.9l4.7-1.2c1.7-.5,3.4-.9,5.1-1.4s3.2-1,4.5-1.4c.6-.2,1.6-.5,3-1.1h.3v6.1c-.1,2.2-.1,4.4-.2,6.7v53.3c-.1,2.5.2,4.2.8,5.2.6,1,2.2,1.5,4.8,1.5h2.4v1.9l-8.2,2.8-8.9,3.4-.4-.5v-7c-1.6,1.9-3.5,3.6-5.5,5-2.9,1.7-6.2,2.6-9.6,2.6-6.1.2-12-2.6-15.7-7.5-4-4.9-6.1-11-6-17.3-.2-7.7,2.3-15.2,7.2-21.2,4.8-5.9,10.7-8.8,17.6-8.8s5.3.6,7.6,1.8v-.2h.1ZM297.9,117.2c1.8-1.7,2.7-3.4,2.7-5v-24.4c0-4.9-1.3-8.4-4-10.4-2.2-1.8-4.9-2.9-7.7-3-4.6,0-8.9,2.3-11.2,6.3-2.7,4.2-4,9.4-4,15.6-.1,5.7,1.4,11.4,4.2,16.3,2.5,4.6,7.4,7.4,12.7,7.2,2.7,0,5.3-.8,7.2-2.7h0Z"></path><image class="cls-4" width="145" height="48" transform="translate(113.1 174.5)"></image><path class="cls-3" d="M121.7,211.3v-27.6h20.5v4.7h-14.9v6.1h13.9v4.6h-13.9v7.5h15.4v4.6h-21Z"></path><path class="cls-3" d="M180.1,211.3h-6.1l-2.4-6.3h-11l-2.3,6.3h-5.9l10.8-27.6h5.9l11.1,27.6h-.1ZM169.8,200.4l-3.8-10.2-3.7,10.2h7.5Z"></path><path class="cls-3" d="M189.3,202.3l5.4-.5c.2,1.5.9,2.9,2,4,1.1.9,2.6,1.3,4,1.3,1.4.1,2.9-.3,4.1-1.1.8-.6,1.4-1.6,1.4-2.7s-.2-1.2-.6-1.7c-.6-.6-1.2-1-2-1.2-.6-.2-2.1-.6-4.5-1.2-3-.7-5.1-1.6-6.3-2.7-1.6-1.4-2.6-3.4-2.6-5.6s.4-2.8,1.2-3.9c.8-1.3,2-2.2,3.4-2.8,1.7-.7,3.6-1,5.4-1,3.5,0,6.1.8,7.8,2.3,1.8,1.5,2.8,3.7,2.8,6.1l-5.6.2c-.1-1.2-.7-2.3-1.5-3.1-1-.7-2.3-1-3.5-.9-1.3,0-2.7.3-3.8,1-.6.4-.9,1-.9,1.7s.3,1.3.8,1.7c.7.6,2.4,1.2,5.1,1.9,2.1.4,4.1,1.1,6,2,1.2.6,2.3,1.6,3,2.8,1.5,2.8,1.5,6.2-.2,8.8-.9,1.4-2.2,2.5-3.7,3.1-1.9.7-4,1.1-6,1-3.5,0-6.2-.8-8-2.4-2-1.8-3.1-4.3-3.3-7h.1Z"></path><path class="cls-3" d="M231.4,211.3v-11.6l-10.1-16h6.5l6.5,10.9,6.4-10.9h6.4l-10.1,16v11.6h-5.6,0Z"></path><image class="cls-4" width="131" height="19" transform="translate(115.7 223.2)"></image><rect class="cls-3" x="121.9" y="229.8" width="116.4" height="4.3"></rect><image class="cls-4" width="300" height="40" transform="translate(35.1 318.5)"></image><path class="cls-3" d="M43.5,340.9l3.9-.4c0,1.1.6,2.1,1.4,2.9.8.6,1.8,1,2.9.9,1,0,2.1-.2,2.9-.8.6-.4,1-1.2,1-1.9s0-.9-.4-1.2c-.4-.4-.9-.7-1.4-.9-.5-.2-1.5-.5-3.2-.9-1.6-.3-3.2-1-4.5-1.9-2-1.7-2.4-4.6-1-6.8.6-.9,1.5-1.6,2.5-2,1.2-.5,2.6-.7,3.9-.7,2-.2,4,.4,5.6,1.6,1.3,1.1,2,2.7,2,4.4l-4,.2c0-.8-.5-1.6-1.1-2.2-.7-.5-1.6-.7-2.5-.7s-1.9.2-2.7.7c-.4.3-.6.7-.6,1.2s.2.9.6,1.2c1.1.7,2.4,1.1,3.6,1.4,1.5.3,2.9.8,4.3,1.4.9.5,1.6,1.1,2.2,2,1.1,2,1,4.4-.2,6.3-.6,1-1.6,1.8-2.7,2.2-1.4.5-2.8.8-4.3.7-2.1.1-4.1-.5-5.8-1.7-1.4-1.3-2.3-3.1-2.4-5.1h0Z"></path><path class="cls-3" d="M72.8,347.3v-16.4h-5.8v-3.3h15.7v3.3h-5.8v16.4s-4.1,0-4.1,0Z"></path><path class="cls-3" d="M106.5,347.3h-4.3l-1.7-4.5h-7.9l-1.6,4.5h-4.2l7.7-19.7h4.2l7.9,19.7h0ZM99.2,339.5l-2.7-7.3-2.7,7.3s5.4,0,5.4,0Z"></path><path class="cls-3" d="M114.2,347.3v-19.7h3.9l8.1,13.2v-13.2h3.7v19.7h-4l-8-12.9v12.9h-3.7Z"></path><path class="cls-3" d="M139.5,327.5h7.3c1.3,0,2.5,0,3.8.4,1.1.3,2.2,1,3,1.8.9.9,1.5,2,1.9,3.2.5,1.5.7,3.1.6,4.7,0,1.4-.2,2.8-.6,4.2-.4,1.3-1.1,2.5-2.1,3.5-.8.7-1.8,1.3-2.8,1.6-1.1.3-2.3.5-3.5.4h-7.5v-19.7h0ZM143.5,330.9v13.1h3c.8,0,1.6,0,2.4-.2.6-.1,1.2-.4,1.6-.8.5-.5.8-1.2,1-1.9.3-1.2.4-2.4.4-3.6s0-2.4-.4-3.5c-.2-.7-.6-1.4-1.1-1.9s-1.2-.8-1.8-.9c-1.1-.2-2.2-.2-3.3-.2h-1.8,0Z"></path><path class="cls-3" d="M181,347.3l-4.7-19.7h4.1l3,13.6,3.6-13.6h4.7l3.5,13.8,3-13.8h4l-4.8,19.7h-4.2l-3.9-14.8-3.9,14.8h-4.4Z"></path><path class="cls-3" d="M209.6,347.3v-19.7h4v19.7h-4Z"></path><path class="cls-3" d="M227.3,347.3v-16.4h-5.9v-3.3h15.7v3.3h-5.8v16.4h-4Z"></path><path class="cls-3" d="M245.2,347.3v-19.7h4v7.8h7.8v-7.8h4v19.7h-4v-8.6h-7.8v8.6h-4Z"></path><path class="cls-3" d="M283.8,327.5h4v10.7c0,1.1,0,2.2.1,3.3.2.8.6,1.5,1.2,1.9.8.5,1.7.8,2.6.7.9,0,1.8-.2,2.6-.7.5-.4.9-1,1-1.7.1-1.1.2-2.2.2-3.4v-10.9h4v10.4c0,1.7,0,3.3-.3,5-.2.9-.6,1.8-1.2,2.5s-1.4,1.3-2.3,1.6c-1.2.4-2.5.6-3.8.6s-2.9-.1-4.3-.6c-.9-.4-1.7-1-2.3-1.7-.5-.6-.9-1.4-1.1-2.2-.3-1.6-.4-3.3-.4-5v-10.5h0Z"></path><path class="cls-3" d="M308.2,340.9l3.9-.4c.1,1.1.6,2.1,1.4,2.9.8.6,1.8,1,2.9.9,1,0,2.1-.2,2.9-.8.6-.4,1-1.2,1-1.9s-.1-.9-.4-1.2c-.4-.4-.9-.7-1.4-.9-.5-.2-1.5-.5-3.2-.9-1.6-.3-3.2-1-4.5-2-2-1.7-2.4-4.6-1-6.8.6-.9,1.5-1.6,2.5-2,1.2-.5,2.6-.7,3.9-.7,2-.1,4,.4,5.6,1.6,1.3,1.1,2,2.7,2,4.4l-4,.2c0-.8-.5-1.6-1.1-2.2-.7-.5-1.6-.7-2.5-.7s-1.9.2-2.7.7c-.4.3-.6.7-.6,1.2s.2.9.6,1.2c1.1.7,2.4,1.1,3.7,1.4,1.5.3,2.9.8,4.3,1.4.9.5,1.6,1.2,2.2,2,.6,1,.8,2,.8,3.1s-.3,2.2-1,3.2c-.6,1-1.6,1.8-2.7,2.2-1.4.5-2.8.8-4.3.7-2.1.1-4.1-.5-5.8-1.7-1.4-1.3-2.3-3.1-2.4-5.1v.2h0Z"></path></g></g></svg>